<svg width="16" height="16" viewBox="0 0 16 16" xmlns="http://www.w3.org/2000/svg">
<circle cx="8" cy="8" r="8" fill="black" fill-opacity="0.5"/>
<path d="M12.1768 6.17678C12.2744 6.07915 12.2744 5.92085 12.1768 5.82322L10.5858 4.23223C10.4882 4.1346 10.3299 4.1346 10.2322 4.23223C10.1346 4.32986 10.1346 4.48816 10.2322 4.58579L11.6464 6L10.2322 7.41421C10.1346 7.51184 10.1346 7.67014 10.2322 7.76777C10.3299 7.8654 10.4882 7.8654 10.5858 7.76777L12.1768 6.17678ZM4 6.25H12V5.75H4V6.25Z" fill="white"/>
<path d="M3.82322 9.82322C3.72559 9.92085 3.72559 10.0791 3.82322 10.1768L5.41421 11.7678C5.51184 11.8654 5.67014 11.8654 5.76777 11.7678C5.8654 11.6701 5.8654 11.5118 5.76777 11.4142L4.35355 10L5.76777 8.58579C5.8654 8.48815 5.8654 8.32986 5.76777 8.23223C5.67014 8.1346 5.51184 8.1346 5.41421 8.23223L3.82322 9.82322ZM12 9.75L4 9.75L4 10.25L12 10.25L12 9.75Z" fill="white"/>
</svg>
