<svg xmlns="http://www.w3.org/2000/svg" width="27.015" height="27.02" viewBox="0 0 27.015 27.02">
  <path id="globe" d="M22.658,10.988H27.83A13.492,13.492,0,0,1,29.008,16H23.074A34.522,34.522,0,0,0,22.658,10.988ZM20.4,3.9a13.567,13.567,0,0,1,6.928,6.09H22.49A21.061,21.061,0,0,0,20.4,3.9Zm-4.33,6.09v-7a13.711,13.711,0,0,1,3.092.493,20.334,20.334,0,0,1,2.33,6.5ZM9.489,22.014A34.514,34.514,0,0,1,9.068,17h6v5.012Zm-.01-11.026h5.587V16h-6A34.641,34.641,0,0,1,9.479,10.988Zm2.509-7.527a13.463,13.463,0,0,1,3.078-.469V9.986H9.644A20.283,20.283,0,0,1,11.988,3.461ZM3.661,9.986a13.58,13.58,0,0,1,7.1-6.131A20.958,20.958,0,0,0,8.643,9.986H3.661ZM8.06,16H2a13.412,13.412,0,0,1,1.158-5.012H8.474A34.7,34.7,0,0,0,8.06,16Zm.427,6.014H3.2A13.365,13.365,0,0,1,1.993,17H8.064a34.239,34.239,0,0,0,.423,5.012Zm.164,1a20.528,20.528,0,0,0,2.134,6.142,13.544,13.544,0,0,1-7.11-6.142H8.651Zm6.415,0V30.01a13.41,13.41,0,0,1-3.045-.46,19.933,19.933,0,0,1-2.356-6.534Zm6.405,0a20.035,20.035,0,0,1-2.344,6.512,13.764,13.764,0,0,1-3.059.465V23.016h5.4ZM16.068,17h6a34.237,34.237,0,0,1-.422,5.012H16.068V17Zm6-1h-6V10.988h5.586A34.49,34.49,0,0,1,22.072,16Zm1,1H29a13.445,13.445,0,0,1-1.2,5.012H22.647A34.518,34.518,0,0,0,23.07,17Zm4.248,6.014a13.5,13.5,0,0,1-6.947,6.1,20.485,20.485,0,0,0,2.113-6.1Z" transform="translate(-1.993 -2.99)" fill="#505050"/>
</svg>
