<svg width="32" height="22" viewBox="0 0 32 22" fill="none" xmlns="http://www.w3.org/2000/svg">
<path fill-rule="evenodd" clip-rule="evenodd" d="M0.999974 2.74995H30.9999C31.552 2.74995 31.9999 2.1339 31.9999 1.37497C31.9999 0.615939 31.5519 0 30.9999 0H0.999974C0.447952 0 0 0.616053 0 1.37497C0 2.1339 0.448035 2.74995 0.999974 2.74995ZM30.9999 9.62503H0.999974C0.447952 9.62503 0 10.2411 0 11C0 11.7589 0.448035 12.375 0.999974 12.375H30.9999C31.552 12.375 31.9999 11.7589 31.9999 11C31.9999 10.2411 31.552 9.62503 30.9999 9.62503ZM11 19.2501H30.9999C31.552 19.2501 32 19.866 31.9999 20.625C31.9999 21.384 31.552 22 30.9999 22H11C10.448 22 9.99998 21.3841 9.99998 20.625C9.99998 19.8661 10.4479 19.2501 11 19.2501Z" fill="black"/>
</svg>
