<svg width="24" height="24" viewBox="0 0 24 24" fill="none" xmlns="http://www.w3.org/2000/svg">
<g clip-path="url(#clip0)">
<path d="M11.7796 13.5001V3.00013C9.21908 3.00107 6.72871 3.7462 4.68609 5.12254C2.64348 6.49888 1.16003 8.43137 0.460657 10.627C-0.238712 12.8226 -0.115856 15.1617 0.8106 17.2894C1.73705 19.4172 3.41658 21.2177 5.59453 22.4179C7.77247 23.6181 10.3301 24.1526 12.8795 23.9402C15.4289 23.7279 17.8312 22.7804 19.722 21.2414C21.6129 19.7023 22.8892 17.6557 23.3574 15.4117C23.8257 13.1678 23.4603 10.849 22.3168 8.80683L11.7796 13.5001ZM24.0002 5.8067C23.0222 4.06196 21.5183 2.59453 19.6571 1.5689C17.796 0.543283 15.6511 1.43669e-05 13.4631 0V10.4999L24.0002 5.8067Z" fill="#505050"/>
</g>
<defs>
<clipPath id="clip0">
<rect width="24" height="24" fill="white"/>
</clipPath>
</defs>
</svg>
